# xmcd
#
# Track frame offsets:
#	150
#	11875
#	23553
#	35280
#	45900
#	54818
#	65378
#	76043
#	90970
#	101930
#	114280
#	125023
#	135808
#	148105
#	163575
#	172423
#	182673
#	189958
#
# Disc length: 2663 seconds
#
# Revision: 2
# Processed by: cddbd v1.5.2PL0 Copyright (c) Steve Scherf et al.
# Submitted via: audiograbber 1.83.01
#
DISCID=db0a6512
DTITLE=Various Artist - Memphis Ramble - A Sun Country Collection 1951-1957 - 
DTITLE=RHINO
DYEAR=1990
DGENRE=Oldies
TTITLE0=Warren Smith - So Long I'm Gone  (Alternate Take)
TTITLE1=Harmonica Frank - Swamproot
TTITLE2=Howard Seratt - Make Room In The Lifeboat For Me
TTITLE3=Hardrock Gunter - Gonna Dance All Night
TTITLE4=Doug Pointdexter and The Starlite Wranglers - My Kind Of Carryin' On
TTITLE5=Bill Taylor and Smokey Joe With Clyde Leppard's Snearly Ranch Boys - Spli
TTITLE5=t Personality
TTITLE6=Miller Sisters - Someday You Will Pay
TTITLE7=Smokey Joe - The Signifying Monkey
TTITLE8=Malcolm Yelvington - It's Me Baby
TTITLE9=Mack Self - Easy To Love
TTITLE10=Johnny Cash and The Tennessee Two - Train Of Love
TTITLE11=Dixieland Drifters - I'm Gonna Find Her
TTITLE12=Ernie Chuffin - I'm Lonesome
TTITLE13=Carl Perkins - Y.O.U.
TTITLE14=Charlie Feathers - Man In Love
TTITLE15=Jerry Lee Lewis and His Pumping Piano - I'm The Guilty One
TTITLE16=Mississippi Slim - Try Doin' Right
TTITLE17=Warren Smith - So Long I'm Gone
EXTD=YEAR: 1990
EXTT0=
EXTT1=
EXTT2=
EXTT3=
EXTT4=
EXTT5=
EXTT6=
EXTT7=
EXTT8=
EXTT9=
EXTT10=
EXTT11=
EXTT12=
EXTT13=
EXTT14=
EXTT15=
EXTT16=
EXTT17=
PLAYORDER=
